<svg width="350" height="200" viewBox="0 0 350 200" fill="none" xmlns="http://www.w3.org/2000/svg">
<g clip-path="url(#clip0_2418_35105)">
<rect width="350" height="200" rx="20" fill="url(#paint0_linear_2418_35105)"/>
<g opacity="0.2">
<mask id="mask0_2418_35105" style="mask-type:alpha" maskUnits="userSpaceOnUse" x="-305" y="-140" width="960" height="960">
<rect width="960" height="960" transform="translate(-305 -140)" fill="url(#paint1_radial_2418_35105)"/>
</mask>
<g mask="url(#mask0_2418_35105)">
<g clip-path="url(#clip1_2418_35105)">
<mask id="path-4-inside-1_2418_35105" fill="white">
<path d="M-17 -44H79V52H-17V-44Z"/>
</mask>
<path d="M79 52V53H80V52H79ZM79 -44H78V52H79H80V-44H79ZM79 52V51H-17V52V53H79V52Z" fill="#E9EAEB" mask="url(#path-4-inside-1_2418_35105)"/>
<mask id="path-6-inside-2_2418_35105" fill="white">
<path d="M79 -44H175V52H79V-44Z"/>
</mask>
<path d="M175 52V53H176V52H175ZM175 -44H174V52H175H176V-44H175ZM175 52V51H79V52V53H175V52Z" fill="#E9EAEB" mask="url(#path-6-inside-2_2418_35105)"/>
<mask id="path-8-inside-3_2418_35105" fill="white">
<path d="M175 -44H271V52H175V-44Z"/>
</mask>
<path d="M271 52V53H272V52H271ZM271 -44H270V52H271H272V-44H271ZM271 52V51H175V52V53H271V52Z" fill="#E9EAEB" mask="url(#path-8-inside-3_2418_35105)"/>
<mask id="path-10-inside-4_2418_35105" fill="white">
<path d="M271 -44H367V52H271V-44Z"/>
</mask>
<path d="M367 52V53H368V52H367ZM367 -44H366V52H367H368V-44H367ZM367 52V51H271V52V53H367V52Z" fill="#E9EAEB" mask="url(#path-10-inside-4_2418_35105)"/>
<mask id="path-12-inside-5_2418_35105" fill="white">
<path d="M-17 52H79V148H-17V52Z"/>
</mask>
<path d="M79 148V149H80V148H79ZM79 52H78V148H79H80V52H79ZM79 148V147H-17V148V149H79V148Z" fill="#E9EAEB" mask="url(#path-12-inside-5_2418_35105)"/>
<mask id="path-14-inside-6_2418_35105" fill="white">
<path d="M79 52H175V148H79V52Z"/>
</mask>
<path d="M175 148V149H176V148H175ZM175 52H174V148H175H176V52H175ZM175 148V147H79V148V149H175V148Z" fill="#E9EAEB" mask="url(#path-14-inside-6_2418_35105)"/>
<mask id="path-16-inside-7_2418_35105" fill="white">
<path d="M175 52H271V148H175V52Z"/>
</mask>
<path d="M271 148V149H272V148H271ZM271 52H270V148H271H272V52H271ZM271 148V147H175V148V149H271V148Z" fill="#E9EAEB" mask="url(#path-16-inside-7_2418_35105)"/>
<mask id="path-18-inside-8_2418_35105" fill="white">
<path d="M271 52H367V148H271V52Z"/>
</mask>
<path d="M271 52H367V148H271V52Z" fill="#F5F5F5"/>
<path d="M367 148V149H368V148H367ZM367 52H366V148H367H368V52H367ZM367 148V147H271V148V149H367V148Z" fill="#E9EAEB" mask="url(#path-18-inside-8_2418_35105)"/>
<mask id="path-20-inside-9_2418_35105" fill="white">
<path d="M-17 148H79V244H-17V148Z"/>
</mask>
<path d="M79 244V245H80V244H79ZM79 148H78V244H79H80V148H79ZM79 244V243H-17V244V245H79V244Z" fill="#E9EAEB" mask="url(#path-20-inside-9_2418_35105)"/>
<mask id="path-22-inside-10_2418_35105" fill="white">
<path d="M79 148H175V244H79V148Z"/>
</mask>
<path d="M175 244V245H176V244H175ZM175 148H174V244H175H176V148H175ZM175 244V243H79V244V245H175V244Z" fill="#E9EAEB" mask="url(#path-22-inside-10_2418_35105)"/>
<mask id="path-24-inside-11_2418_35105" fill="white">
<path d="M175 148H271V244H175V148Z"/>
</mask>
<path d="M271 244V245H272V244H271ZM271 148H270V244H271H272V148H271ZM271 244V243H175V244V245H271V244Z" fill="#E9EAEB" mask="url(#path-24-inside-11_2418_35105)"/>
<mask id="path-26-inside-12_2418_35105" fill="white">
<path d="M271 148H367V244H271V148Z"/>
</mask>
<path d="M367 244V245H368V244H367ZM367 148H366V244H367H368V148H367ZM367 244V243H271V244V245H367V244Z" fill="#E9EAEB" mask="url(#path-26-inside-12_2418_35105)"/>
</g>
<rect x="-304.5" y="-139.5" width="959" height="959" stroke="#E9EAEB"/>
</g>
</g>
<g filter="url(#filter0_f_2418_35105)">
<ellipse cx="174.5" cy="100" rx="127.5" ry="107" fill="#00FFF0" fill-opacity="0.65"/>
</g>
<circle cx="39.0001" cy="39.0001" r="19.0001" fill="#05ACA4"/>
<path d="M40.0955 28.291L28.291 35.7859H33.2999L37.5857 32.966L37.8797 35.7859H40.8421C40.8421 35.7859 40.2588 28.7447 40.0955 28.291Z" fill="white"/>
<path d="M28.3076 37.7598L30.5203 40.7239H50.4642L48.2516 37.7598H28.3076Z" fill="white"/>
<path d="M38.6597 50.1941L50.4642 42.6992H45.4553L41.1695 45.5191L40.8755 42.6992H37.9131L38.6597 50.1941Z" fill="white"/>
<g filter="url(#filter1_di_2418_35105)">
<path d="M107.154 14.1371C109.53 10.0207 114.794 8.61025 118.911 10.9869L377.667 160.38C381.784 162.757 383.194 168.021 380.818 172.137L294.424 321.775C292.048 325.891 286.784 327.302 282.667 324.925L23.9106 175.532C19.7941 173.155 18.3837 167.891 20.7603 163.775L107.154 14.1371Z" fill="url(#paint2_linear_2418_35105)"/>
<path d="M118.66 11.4198L377.418 160.813C381.295 163.052 382.623 168.01 380.385 171.887L293.991 321.525C291.753 325.402 286.795 326.731 282.918 324.492L24.1604 175.099C20.2833 172.86 18.9548 167.902 21.1933 164.025L107.587 14.387C109.825 10.5098 114.783 9.1814 118.66 11.4198Z" stroke="url(#paint3_linear_2418_35105)" stroke-opacity="0.08"/>
<g filter="url(#filter2_d_2418_35105)">
<path d="M68.5333 152.797C69.6815 153.46 70.2557 153.792 70.5653 154.268C70.8375 154.687 70.9699 155.182 70.9438 155.681C70.9141 156.248 70.5832 156.823 69.9204 157.971L65.4228 165.761C64.7599 166.909 64.4278 167.483 63.9511 167.793C63.5319 168.065 63.0375 168.197 62.5384 168.171C61.9709 168.141 61.3963 167.811 60.2482 167.148L46.3081 159.099C45.1599 158.436 44.5861 158.104 44.2766 157.628C44.0044 157.208 43.8719 156.714 43.8981 156.215C43.9278 155.647 44.2595 155.073 44.9224 153.925L49.4199 146.135C50.0828 144.987 50.4141 144.413 50.8908 144.103C51.3099 143.831 51.8044 143.699 52.3035 143.725C52.871 143.754 53.4451 144.086 54.5932 144.749L68.5333 152.797ZM58.9345 150.423C57.7578 149.52 56.2946 149.213 55.0532 149.288C53.0278 149.41 51.3568 150.605 50.4882 152.224C49.3841 154.283 49.6263 156.82 51.244 158.548C52.824 160.236 55.7329 161.12 58.4749 159.334C58.987 159.001 59.3635 158.746 59.7088 158.553C60.0457 158.364 60.2797 158.277 60.4747 158.249C60.9799 158.177 61.3401 158.311 61.5762 158.508C61.8201 158.711 61.9885 159.028 62.0161 159.416C62.0249 159.54 61.9898 159.773 61.8687 160.114C61.7536 160.438 61.5872 160.79 61.4078 161.124C61.2299 161.454 61.0479 161.752 60.91 161.968C60.8413 162.076 60.7845 162.162 60.7452 162.22C60.7256 162.249 60.7104 162.272 60.7006 162.286C60.6957 162.293 60.6918 162.298 60.6896 162.301C60.6885 162.303 60.688 162.304 60.6876 162.304C60.4084 162.702 60.5045 163.251 60.9024 163.53C61.3003 163.81 61.8493 163.714 62.1284 163.317L62.1304 163.313C62.1315 163.312 62.1334 163.31 62.1352 163.307C62.1389 163.302 62.144 163.294 62.1505 163.284C62.1636 163.265 62.1826 163.239 62.2056 163.205C62.252 163.136 62.3171 163.038 62.3944 162.917C62.5486 162.675 62.7551 162.338 62.9595 161.957C63.1625 161.58 63.3727 161.143 63.5282 160.705C63.6776 160.284 63.8067 159.78 63.7725 159.295C63.7137 158.465 63.3417 157.69 62.7012 157.157C62.0526 156.617 61.1832 156.371 60.224 156.508C59.7197 156.58 59.2662 156.783 58.8458 157.018C58.4334 157.249 57.981 157.554 57.5116 157.86C55.5873 159.113 53.612 158.505 52.5288 157.348C51.462 156.208 51.2668 154.498 52.0395 153.057C52.6404 151.937 53.7878 151.127 55.1626 151.044C56.068 150.99 57.0883 151.223 57.8642 151.818C58.6071 152.388 59.208 153.351 59.2186 154.954C59.2218 155.44 59.6185 155.832 60.1045 155.83C60.5906 155.828 60.9824 155.432 60.9793 154.946C60.9654 152.845 60.144 151.351 58.9345 150.423Z" fill="white"/>
<path d="M90.9471 167.073C91.5019 167.394 92.0015 167.758 92.4457 168.165C92.8963 168.561 93.2783 168.985 93.5908 169.437C93.7341 169.645 93.8604 169.853 93.9702 170.064C94.1976 170.499 94.0344 171.018 93.65 171.323C93.0327 171.813 92.1095 171.557 91.6239 170.936C91.5374 170.825 91.4458 170.718 91.3498 170.612C90.8948 170.093 90.3335 169.64 89.6655 169.254C89.19 168.979 88.7463 168.806 88.3347 168.735C87.9344 168.67 87.5778 168.698 87.2659 168.82C86.9655 168.949 86.7301 169.16 86.5602 169.455C86.3708 169.783 86.3367 170.117 86.4567 170.458C86.5768 170.799 86.895 171.203 87.4118 171.667L89.0954 173.183C90.0676 174.061 90.6723 174.923 90.9086 175.769C91.1513 176.603 91.0243 177.451 90.5276 178.312C90.0961 179.059 89.5129 179.598 88.7784 179.929C88.0619 180.255 87.2442 180.364 86.3253 180.256C85.4242 180.143 84.4751 179.799 83.4787 179.224C82.8562 178.864 82.2829 178.459 81.7597 178.006C81.2411 177.57 80.7885 177.112 80.4014 176.632C80.2367 176.419 80.0867 176.207 79.9527 175.995C79.6542 175.523 79.8016 174.917 80.2309 174.56L80.276 174.523C80.8793 174.021 81.7971 174.225 82.2652 174.855C82.5794 175.278 82.9448 175.678 83.3614 176.054C83.7845 176.419 84.2453 176.746 84.7433 177.033C85.5699 177.511 86.2311 177.726 86.7259 177.68C87.2272 177.622 87.5896 177.4 87.8118 177.015C87.9358 176.8 87.9867 176.581 87.9651 176.357C87.9547 176.14 87.8573 175.903 87.6736 175.645C87.5077 175.384 87.2382 175.092 86.865 174.77L85.1814 173.255C84.2253 172.401 83.6374 171.549 83.419 170.698C83.2185 169.843 83.3774 168.968 83.8938 168.073C84.3383 167.303 84.9276 166.753 85.662 166.423C86.4078 166.098 87.2346 165.986 88.1422 166.088C89.0612 166.195 89.9961 166.524 90.9471 167.073ZM106.461 176.03C107.254 176.488 107.94 177.051 108.521 177.718C108.877 178.127 109.165 178.541 109.384 178.962C109.627 179.428 109.446 179.982 109.036 180.311C108.367 180.847 107.379 180.572 106.862 179.889C106.793 179.799 106.723 179.71 106.65 179.626C106.252 179.14 105.769 178.733 105.203 178.406C104.071 177.752 103.017 177.59 102.043 177.918C101.075 178.234 100.234 179.01 99.522 180.244C98.8097 181.478 98.5551 182.599 98.758 183.607C98.9611 184.615 99.6291 185.446 100.761 186.1C101.327 186.427 101.918 186.647 102.532 186.76C102.644 186.779 102.758 186.795 102.874 186.808C103.726 186.9 104.457 187.619 104.327 188.466C104.248 188.987 103.858 189.42 103.333 189.443C102.859 189.463 102.356 189.422 101.824 189.318C100.956 189.149 100.125 188.835 99.3327 188.377C98.0421 187.632 97.0846 186.74 96.4617 185.701C95.8389 184.662 95.5435 183.54 95.5748 182.335C95.624 181.126 96.0116 179.893 96.737 178.637C97.4626 177.38 98.3334 176.433 99.3497 175.797C100.377 175.167 101.497 174.863 102.708 174.883C103.919 174.903 105.17 175.285 106.461 176.03ZM152.667 202.708C153.222 203.028 153.721 203.392 154.165 203.799C154.616 204.195 154.998 204.619 155.31 205.071C155.454 205.279 155.581 205.488 155.691 205.698C155.918 206.133 155.754 206.652 155.37 206.957C154.752 207.447 153.83 207.191 153.344 206.57C153.258 206.46 153.165 206.352 153.069 206.246C152.614 205.727 152.053 205.273 151.385 204.888C150.91 204.613 150.466 204.441 150.055 204.369C149.655 204.304 149.298 204.333 148.986 204.455C148.686 204.583 148.451 204.795 148.281 205.089C148.091 205.417 148.056 205.751 148.176 206.092C148.296 206.433 148.615 206.837 149.131 207.301L150.816 208.817C151.788 209.695 152.393 210.557 152.629 211.403C152.872 212.238 152.744 213.085 152.247 213.945C151.816 214.693 151.233 215.233 150.499 215.563C149.782 215.889 148.964 215.998 148.045 215.89C147.144 215.777 146.195 215.433 145.199 214.858C144.576 214.498 144.003 214.093 143.479 213.64C142.961 213.204 142.508 212.746 142.121 212.266C141.956 212.053 141.806 211.841 141.672 211.629C141.374 211.157 141.522 210.552 141.951 210.194L141.996 210.157C142.599 209.655 143.517 209.859 143.985 210.489C144.299 210.912 144.665 211.312 145.082 211.688C145.505 212.053 145.966 212.38 146.464 212.668C147.29 213.145 147.951 213.36 148.445 213.313C148.947 213.256 149.309 213.034 149.531 212.649C149.655 212.434 149.706 212.215 149.685 211.991C149.674 211.774 149.577 211.537 149.394 211.28C149.228 211.018 148.959 210.726 148.585 210.405L146.902 208.889C145.946 208.035 145.358 207.183 145.139 206.332C144.939 205.477 145.097 204.601 145.613 203.707C146.058 202.937 146.647 202.387 147.381 202.056C148.127 201.732 148.954 201.62 149.862 201.721C150.781 201.829 151.716 202.158 152.667 202.708ZM83.6488 163.109C84.324 163.499 84.5555 164.362 84.1657 165.038L78.7106 174.486C78.2954 175.205 77.3753 175.452 76.6562 175.037C76.256 174.806 75.9846 174.403 75.9198 173.945L74.4474 163.552L70.7326 169.986C70.3426 170.661 69.4789 170.893 68.8036 170.503C68.1287 170.113 67.898 169.25 68.2876 168.575L73.7363 159.137C74.1554 158.412 75.0825 158.163 75.808 158.582C76.2116 158.815 76.4865 159.22 76.5523 159.681L78.0274 170.021L81.7198 163.626C82.1097 162.95 82.9734 162.719 83.6488 163.109ZM92.4718 180.544C93.2222 180.977 93.4795 181.937 93.0462 182.687C92.613 183.438 91.6529 183.695 90.9025 183.262L90.8687 183.242C90.1183 182.809 89.861 181.849 90.2942 181.099C90.7275 180.348 91.6876 180.091 92.438 180.524L92.4718 180.544ZM117.112 182.429C117.758 182.802 118.129 183.518 118.06 184.261L116.962 196.051C116.869 197.051 115.77 197.619 114.9 197.117C114.423 196.841 114.156 196.307 114.221 195.76L114.5 193.421L108.901 190.188L107.033 191.598C106.589 191.933 105.987 191.971 105.506 191.693C104.631 191.188 104.574 189.947 105.397 189.363L115.051 182.524C115.66 182.092 116.465 182.055 117.112 182.429ZM129.461 189.558C130.797 190.33 131.642 191.247 131.994 192.311C132.346 193.374 132.188 194.484 131.521 195.639C131.09 196.386 130.553 196.937 129.911 197.291C129.269 197.645 128.551 197.789 127.759 197.724C127.479 197.703 127.192 197.651 126.898 197.571C127.052 197.739 127.179 197.923 127.278 198.125C127.509 198.561 127.618 199.092 127.603 199.717L127.551 201.908C127.524 203.024 126.311 203.705 125.344 203.147C124.877 202.877 124.595 202.372 124.609 201.833L124.721 197.691C124.725 197.422 124.686 197.188 124.604 196.99C124.529 196.781 124.408 196.597 124.241 196.441C124.093 196.28 123.906 196.133 123.679 196.003L122.389 195.257L120.472 198.578C120.052 199.305 119.122 199.554 118.395 199.135C117.668 198.715 117.419 197.785 117.839 197.058L123.992 186.401L129.461 189.558ZM140.024 195.657C141.383 196.442 142.401 197.346 143.077 198.371C143.772 199.39 144.109 200.491 144.091 201.673C144.091 202.851 143.725 204.074 142.992 205.342C142.26 206.61 141.381 207.544 140.355 208.144C139.341 208.751 138.215 209.015 136.978 208.935C135.759 208.85 134.47 208.415 133.111 207.631L128.423 204.924L135.336 192.951L140.024 195.657ZM132.302 204.287L134.204 205.385C135.483 206.124 136.623 206.36 137.623 206.092C138.623 205.824 139.496 205.044 140.241 203.754C140.986 202.463 141.216 201.32 140.93 200.324C140.662 199.324 139.894 198.458 138.626 197.725L136.724 196.627L132.302 204.287ZM110.964 188.639L114.805 190.856L115.502 185.235L115.469 185.216L110.964 188.639ZM123.487 193.355L125.847 194.718C126.549 195.124 127.158 195.286 127.672 195.206C128.198 195.132 128.624 194.812 128.951 194.246C129.272 193.691 129.332 193.168 129.133 192.675C128.945 192.19 128.5 191.744 127.798 191.339L125.438 189.976L123.487 193.355Z" fill="white"/>
</g>
<path d="M259.248 127.806L262.686 116.859L266.04 118.795L263.042 128.02L260.908 126.788L270.751 121.515L274.104 123.451L262.463 129.662L259.248 127.806ZM267.028 132.298L274.568 123.719L277.838 125.607L270.298 134.186L267.028 132.298ZM272.011 135.175L279.551 126.595L283.86 129.083C285.163 129.835 286.002 130.696 286.379 131.665C286.765 132.639 286.665 133.634 286.078 134.65C285.609 135.463 284.992 136.062 284.228 136.446C283.474 136.835 282.628 136.988 281.692 136.903C280.765 136.823 279.803 136.496 278.805 135.92L275.673 134.112L278.243 133.692L275.281 137.063L272.011 135.175ZM277.936 134.032L277.642 131.886L280.427 133.494C280.88 133.755 281.295 133.847 281.672 133.769C282.055 133.682 282.364 133.436 282.598 133.029C282.801 132.678 282.834 132.365 282.698 132.089C282.576 131.809 282.326 131.56 281.947 131.341L279.411 129.877L282.037 129.361L277.936 134.032ZM286.74 143.679L294.28 135.099L298.589 137.587C299.892 138.339 300.731 139.2 301.108 140.168C301.494 141.143 301.394 142.138 300.807 143.154C300.338 143.967 299.721 144.565 298.957 144.95C298.203 145.339 297.357 145.492 296.421 145.407C295.494 145.327 294.531 144.999 293.534 144.423L290.402 142.615L292.972 142.196L290.01 145.567L286.74 143.679ZM292.665 142.536L292.371 140.39L295.156 141.998C295.609 142.259 296.024 142.351 296.401 142.273C296.784 142.186 297.093 141.939 297.327 141.533C297.53 141.182 297.563 140.868 297.427 140.593C297.305 140.313 297.055 140.064 296.676 139.845L294.14 138.381L296.766 137.865L292.665 142.536ZM297.041 149.626L304.581 141.046L307.851 142.934L302.288 149.274L306.666 151.802L304.69 154.042L297.041 149.626ZM304.814 154.113L316.594 147.982L319.808 149.838L316.508 160.865L313.252 158.985L316.414 149.892L317.689 150.628L308.264 156.105L304.814 154.113ZM308.644 154.071L311.307 152.467L315.768 155.043L314.769 157.607L308.644 154.071ZM319.041 162.327L322.342 158.562L321.574 160.723L322.922 151.636L326.206 153.532L325.266 159.769L323.201 158.577L330.225 155.852L333.509 157.748L323.375 161.763L325.612 160.45L322.311 164.215L319.041 162.327ZM334.255 162.982L338.578 165.478L336.747 167.562L332.424 165.066L334.255 162.982ZM331.646 166.317L336.51 169.125L334.587 171.303L326.522 166.647L334.062 158.068L341.947 162.62L340.024 164.798L335.354 162.102L331.646 166.317ZM335.984 172.11L343.524 163.53L347.875 166.042C349.159 166.784 349.99 167.639 350.366 168.608C350.748 169.567 350.649 170.551 350.067 171.557C349.598 172.37 348.984 172.964 348.226 173.339C347.476 173.72 346.634 173.867 345.697 173.783C344.77 173.703 343.808 173.375 342.81 172.799L339.679 170.991L342.217 170.627L339.254 173.998L335.984 172.11ZM341.915 175.534L341.96 170.849L345.327 172.793L345.31 177.494L341.915 175.534ZM341.909 170.967L341.615 168.821L344.4 170.429C344.853 170.69 345.268 170.782 345.646 170.704C346.028 170.617 346.337 170.371 346.572 169.964C346.774 169.613 346.808 169.3 346.671 169.024C346.549 168.744 346.299 168.495 345.92 168.276L343.385 166.812L346.011 166.296L341.909 170.967ZM350.172 180.597C349.599 180.266 349.073 179.907 348.595 179.52C348.116 179.133 347.702 178.74 347.354 178.341C347.019 177.939 346.749 177.555 346.541 177.189L349.194 175.506C349.437 175.917 349.699 176.296 349.979 176.642C350.274 176.985 350.583 177.293 350.906 177.565C351.238 177.843 351.584 178.086 351.944 178.294C352.231 178.46 352.479 178.573 352.691 178.633C352.912 178.699 353.092 178.717 353.232 178.687C353.387 178.653 353.497 178.581 353.561 178.47C353.646 178.323 353.632 178.154 353.519 177.966C353.406 177.778 353.233 177.567 352.998 177.333C352.773 177.104 352.516 176.857 352.226 176.591C351.95 176.321 351.681 176.03 351.418 175.718C351.16 175.397 350.948 175.059 350.783 174.705C350.627 174.356 350.552 173.986 350.556 173.595C350.56 173.203 350.685 172.795 350.931 172.37C351.357 171.631 351.922 171.101 352.625 170.78C353.337 170.464 354.143 170.369 355.043 170.495C355.958 170.617 356.924 170.971 357.94 171.558C358.66 171.974 359.287 172.434 359.821 172.939C360.369 173.441 360.792 173.956 361.09 174.485L358.536 176.188C358.287 175.724 357.966 175.299 357.574 174.912C357.19 174.531 356.763 174.204 356.292 173.932C355.978 173.751 355.696 173.631 355.446 173.573C355.202 173.506 354.995 173.491 354.825 173.528C354.665 173.571 354.553 173.648 354.489 173.759C354.403 173.907 354.415 174.08 354.522 174.277C354.635 174.466 354.809 174.677 355.043 174.911C355.283 175.135 355.541 175.383 355.816 175.652C356.106 175.918 356.378 176.205 356.632 176.511C356.9 176.814 357.117 177.143 357.282 177.497C357.453 177.841 357.536 178.21 357.531 178.601C357.532 178.983 357.41 179.387 357.165 179.812C356.749 180.533 356.185 181.051 355.473 181.366C354.766 181.673 353.956 181.765 353.041 181.643C352.135 181.527 351.179 181.178 350.172 180.597Z" fill="white"/>
</g>
<g filter="url(#filter3_di_2418_35105)">
<g clip-path="url(#clip2_2418_35105)">
<path d="M207.154 -19.8629C209.53 -23.9793 214.794 -25.3897 218.911 -23.0131L477.667 126.38C481.784 128.757 483.194 134.021 480.818 138.137L394.424 287.775C392.048 291.891 386.784 293.302 382.667 290.925L123.911 141.532C119.794 139.155 118.384 133.891 120.76 129.775L207.154 -19.8629Z" fill="url(#paint4_linear_2418_35105)"/>
<g filter="url(#filter4_d_2418_35105)">
<path d="M168.533 118.797C169.681 119.46 170.256 119.792 170.565 120.268C170.837 120.687 170.97 121.182 170.944 121.681C170.914 122.248 170.583 122.823 169.92 123.971L165.423 131.761C164.76 132.909 164.428 133.483 163.951 133.793C163.532 134.065 163.038 134.197 162.538 134.171C161.971 134.141 161.396 133.811 160.248 133.148L146.308 125.099C145.16 124.436 144.586 124.104 144.277 123.628C144.004 123.208 143.872 122.714 143.898 122.215C143.928 121.647 144.259 121.073 144.922 119.925L149.42 112.135C150.083 110.987 150.414 110.413 150.891 110.103C151.31 109.831 151.804 109.699 152.303 109.725C152.871 109.754 153.445 110.086 154.593 110.749L168.533 118.797ZM158.935 116.423C157.758 115.52 156.295 115.213 155.053 115.288C153.028 115.41 151.357 116.605 150.488 118.224C149.384 120.283 149.626 122.82 151.244 124.548C152.824 126.236 155.733 127.12 158.475 125.334C158.987 125.001 159.363 124.746 159.709 124.553C160.046 124.364 160.28 124.277 160.475 124.249C160.98 124.177 161.34 124.311 161.576 124.508C161.82 124.711 161.989 125.028 162.016 125.416C162.025 125.54 161.99 125.773 161.869 126.114C161.754 126.438 161.587 126.79 161.408 127.124C161.23 127.454 161.048 127.752 160.91 127.968C160.841 128.076 160.784 128.162 160.745 128.22C160.726 128.249 160.71 128.272 160.701 128.286C160.696 128.293 160.692 128.298 160.69 128.301C160.689 128.303 160.688 128.304 160.688 128.304C160.408 128.702 160.504 129.251 160.902 129.53C161.3 129.81 161.849 129.714 162.128 129.317L162.13 129.313C162.132 129.312 162.133 129.31 162.135 129.307C162.139 129.302 162.144 129.294 162.151 129.284C162.164 129.265 162.183 129.239 162.206 129.205C162.252 129.136 162.317 129.038 162.394 128.917C162.549 128.675 162.755 128.338 162.96 127.957C163.162 127.58 163.373 127.143 163.528 126.705C163.678 126.284 163.807 125.78 163.773 125.295C163.714 124.465 163.342 123.69 162.701 123.157C162.053 122.617 161.183 122.371 160.224 122.508C159.72 122.58 159.266 122.783 158.846 123.018C158.433 123.249 157.981 123.554 157.512 123.86C155.587 125.113 153.612 124.505 152.529 123.348C151.462 122.208 151.267 120.498 152.04 119.057C152.64 117.937 153.788 117.127 155.163 117.044C156.068 116.99 157.088 117.223 157.864 117.818C158.607 118.388 159.208 119.351 159.219 120.954C159.222 121.44 159.619 121.832 160.105 121.83C160.591 121.828 160.982 121.432 160.979 120.946C160.965 118.845 160.144 117.351 158.935 116.423Z" fill="white"/>
<path d="M190.947 133.073C191.502 133.394 192.002 133.758 192.446 134.165C192.896 134.561 193.278 134.985 193.591 135.437C193.734 135.645 193.86 135.853 193.97 136.064C194.198 136.499 194.034 137.018 193.65 137.323C193.033 137.813 192.11 137.557 191.624 136.936C191.537 136.825 191.446 136.718 191.35 136.612C190.895 136.093 190.334 135.64 189.666 135.254C189.19 134.979 188.746 134.806 188.335 134.735C187.934 134.67 187.578 134.698 187.266 134.82C186.966 134.949 186.73 135.16 186.56 135.455C186.371 135.783 186.337 136.117 186.457 136.458C186.577 136.799 186.895 137.203 187.412 137.667L189.095 139.183C190.068 140.061 190.672 140.923 190.909 141.769C191.151 142.603 191.024 143.451 190.528 144.312C190.096 145.059 189.513 145.598 188.778 145.929C188.062 146.255 187.244 146.364 186.325 146.256C185.424 146.143 184.475 145.799 183.479 145.224C182.856 144.864 182.283 144.459 181.76 144.006C181.241 143.57 180.788 143.112 180.401 142.632C180.237 142.419 180.087 142.207 179.953 141.995C179.654 141.523 179.802 140.917 180.231 140.56L180.276 140.523C180.879 140.021 181.797 140.225 182.265 140.855C182.579 141.278 182.945 141.678 183.361 142.054C183.784 142.419 184.245 142.746 184.743 143.033C185.57 143.511 186.231 143.726 186.726 143.68C187.227 143.622 187.59 143.4 187.812 143.015C187.936 142.8 187.987 142.581 187.965 142.357C187.955 142.14 187.857 141.903 187.674 141.645C187.508 141.384 187.238 141.092 186.865 140.77L185.181 139.255C184.225 138.401 183.637 137.549 183.419 136.698C183.219 135.843 183.377 134.968 183.894 134.073C184.338 133.303 184.928 132.753 185.662 132.423C186.408 132.098 187.235 131.986 188.142 132.088C189.061 132.195 189.996 132.524 190.947 133.073ZM206.461 142.03C207.254 142.488 207.94 143.051 208.521 143.718C208.877 144.127 209.165 144.541 209.384 144.962C209.627 145.428 209.446 145.982 209.036 146.311C208.367 146.847 207.379 146.572 206.862 145.889C206.793 145.799 206.723 145.71 206.65 145.626C206.252 145.14 205.769 144.733 205.203 144.406C204.071 143.752 203.017 143.59 202.043 143.918C201.075 144.234 200.234 145.01 199.522 146.244C198.81 147.478 198.555 148.599 198.758 149.607C198.961 150.615 199.629 151.446 200.761 152.1C201.327 152.427 201.918 152.647 202.532 152.76C202.644 152.779 202.758 152.795 202.874 152.808C203.726 152.9 204.457 153.619 204.327 154.466C204.248 154.987 203.858 155.42 203.333 155.443C202.859 155.463 202.356 155.422 201.824 155.318C200.956 155.149 200.125 154.835 199.333 154.377C198.042 153.632 197.085 152.74 196.462 151.701C195.839 150.662 195.543 149.54 195.575 148.335C195.624 147.126 196.012 145.893 196.737 144.637C197.463 143.38 198.333 142.433 199.35 141.797C200.377 141.167 201.497 140.863 202.708 140.883C203.919 140.903 205.17 141.285 206.461 142.03ZM252.667 168.708C253.222 169.028 253.721 169.392 254.165 169.799C254.616 170.195 254.998 170.619 255.31 171.071C255.454 171.279 255.581 171.488 255.691 171.698C255.918 172.133 255.754 172.652 255.37 172.957C254.752 173.447 253.83 173.191 253.344 172.57C253.258 172.46 253.165 172.352 253.069 172.246C252.614 171.727 252.053 171.273 251.385 170.888C250.91 170.613 250.466 170.441 250.055 170.369C249.655 170.304 249.298 170.333 248.986 170.455C248.686 170.583 248.451 170.795 248.281 171.089C248.091 171.417 248.056 171.751 248.176 172.092C248.296 172.433 248.615 172.837 249.131 173.301L250.816 174.817C251.788 175.695 252.393 176.557 252.629 177.403C252.872 178.238 252.744 179.085 252.247 179.945C251.816 180.693 251.233 181.233 250.499 181.563C249.782 181.889 248.964 181.998 248.045 181.89C247.144 181.777 246.195 181.433 245.199 180.858C244.576 180.498 244.003 180.093 243.479 179.64C242.961 179.204 242.508 178.746 242.121 178.266C241.956 178.053 241.806 177.841 241.672 177.629C241.374 177.157 241.522 176.552 241.951 176.194L241.996 176.157C242.599 175.655 243.517 175.859 243.985 176.489C244.299 176.912 244.665 177.312 245.082 177.688C245.505 178.053 245.966 178.38 246.464 178.668C247.29 179.145 247.951 179.36 248.445 179.313C248.947 179.256 249.309 179.034 249.531 178.649C249.655 178.434 249.706 178.215 249.685 177.991C249.674 177.774 249.577 177.537 249.394 177.28C249.228 177.018 248.959 176.726 248.585 176.405L246.902 174.889C245.946 174.035 245.358 173.183 245.139 172.332C244.939 171.477 245.097 170.601 245.613 169.707C246.058 168.937 246.647 168.387 247.381 168.056C248.127 167.732 248.954 167.62 249.862 167.721C250.781 167.829 251.716 168.158 252.667 168.708ZM183.649 129.109C184.324 129.499 184.556 130.362 184.166 131.038L178.711 140.486C178.295 141.205 177.375 141.452 176.656 141.037C176.256 140.806 175.985 140.403 175.92 139.945L174.447 129.552L170.733 135.986C170.343 136.661 169.479 136.893 168.804 136.503C168.129 136.113 167.898 135.25 168.288 134.575L173.736 125.137C174.155 124.412 175.082 124.163 175.808 124.582C176.212 124.815 176.487 125.22 176.552 125.681L178.027 136.021L181.72 129.626C182.11 128.95 182.973 128.719 183.649 129.109ZM192.472 146.544C193.222 146.977 193.479 147.937 193.046 148.687C192.613 149.438 191.653 149.695 190.902 149.262L190.869 149.242C190.118 148.809 189.861 147.849 190.294 147.099C190.727 146.348 191.688 146.091 192.438 146.524L192.472 146.544ZM217.112 148.429C217.758 148.802 218.129 149.518 218.06 150.261L216.962 162.051C216.869 163.051 215.77 163.619 214.9 163.117C214.423 162.841 214.156 162.307 214.221 161.76L214.5 159.421L208.901 156.188L207.033 157.598C206.589 157.933 205.987 157.971 205.506 157.693C204.631 157.188 204.574 155.947 205.397 155.363L215.051 148.524C215.66 148.092 216.465 148.055 217.112 148.429ZM229.461 155.558C230.797 156.33 231.642 157.247 231.994 158.311C232.346 159.374 232.188 160.484 231.521 161.639C231.09 162.386 230.553 162.937 229.911 163.291C229.269 163.645 228.551 163.789 227.759 163.724C227.479 163.703 227.192 163.651 226.898 163.571C227.052 163.739 227.179 163.923 227.278 164.125C227.509 164.561 227.618 165.092 227.603 165.717L227.551 167.908C227.524 169.024 226.311 169.705 225.344 169.147C224.877 168.877 224.595 168.372 224.609 167.833L224.721 163.691C224.725 163.422 224.686 163.188 224.604 162.99C224.529 162.781 224.408 162.597 224.241 162.441C224.093 162.28 223.906 162.133 223.679 162.003L222.389 161.257L220.472 164.578C220.052 165.305 219.122 165.554 218.395 165.135C217.668 164.715 217.419 163.785 217.839 163.058L223.992 152.401L229.461 155.558ZM240.024 161.657C241.383 162.442 242.401 163.346 243.077 164.371C243.772 165.39 244.109 166.491 244.091 167.673C244.091 168.851 243.725 170.074 242.992 171.342C242.26 172.61 241.381 173.544 240.355 174.144C239.341 174.751 238.215 175.015 236.978 174.935C235.759 174.85 234.47 174.415 233.111 173.631L228.423 170.924L235.336 158.951L240.024 161.657ZM232.302 170.287L234.204 171.385C235.483 172.124 236.623 172.36 237.623 172.092C238.623 171.824 239.496 171.044 240.241 169.754C240.986 168.463 241.216 167.32 240.93 166.324C240.662 165.324 239.894 164.458 238.626 163.725L236.724 162.627L232.302 170.287ZM210.964 154.639L214.805 156.856L215.502 151.235L215.469 151.216L210.964 154.639ZM223.487 159.355L225.847 160.718C226.549 161.124 227.158 161.286 227.672 161.206C228.198 161.132 228.624 160.812 228.951 160.246C229.272 159.691 229.332 159.168 229.133 158.675C228.945 158.19 228.5 157.744 227.798 157.339L225.438 155.976L223.487 159.355Z" fill="white"/>
</g>
</g>
</g>
</g>
<defs>
<filter id="filter0_f_2418_35105" x="-253" y="-307" width="855" height="814" filterUnits="userSpaceOnUse" color-interpolation-filters="sRGB">
<feFlood flood-opacity="0" result="BackgroundImageFix"/>
<feBlend mode="normal" in="SourceGraphic" in2="BackgroundImageFix" result="shape"/>
<feGaussianBlur stdDeviation="150" result="effect1_foregroundBlur_2418_35105"/>
</filter>
<filter id="filter1_di_2418_35105" x="14.457" y="4.68359" width="376.664" height="330.545" filterUnits="userSpaceOnUse" color-interpolation-filters="sRGB">
<feFlood flood-opacity="0" result="BackgroundImageFix"/>
<feColorMatrix in="SourceAlpha" type="matrix" values="0 0 0 0 0 0 0 0 0 0 0 0 0 0 0 0 0 0 127 0" result="hardAlpha"/>
<feOffset dx="2" dy="2"/>
<feGaussianBlur stdDeviation="2"/>
<feComposite in2="hardAlpha" operator="out"/>
<feColorMatrix type="matrix" values="0 0 0 0 0 0 0 0 0 0 0 0 0 0 0 0 0 0 0.25 0"/>
<feBlend mode="normal" in2="BackgroundImageFix" result="effect1_dropShadow_2418_35105"/>
<feBlend mode="normal" in="SourceGraphic" in2="effect1_dropShadow_2418_35105" result="shape"/>
<feColorMatrix in="SourceAlpha" type="matrix" values="0 0 0 0 0 0 0 0 0 0 0 0 0 0 0 0 0 0 127 0" result="hardAlpha"/>
<feOffset dx="2" dy="4"/>
<feGaussianBlur stdDeviation="2"/>
<feComposite in2="hardAlpha" operator="arithmetic" k2="-1" k3="1"/>
<feColorMatrix type="matrix" values="0 0 0 0 1 0 0 0 0 1 0 0 0 0 1 0 0 0 0.3 0"/>
<feBlend mode="normal" in2="shape" result="effect2_innerShadow_2418_35105"/>
</filter>
<filter id="filter2_d_2418_35105" x="43.0283" y="142.855" width="116.976" height="77.9473" filterUnits="userSpaceOnUse" color-interpolation-filters="sRGB">
<feFlood flood-opacity="0" result="BackgroundImageFix"/>
<feColorMatrix in="SourceAlpha" type="matrix" values="0 0 0 0 0 0 0 0 0 0 0 0 0 0 0 0 0 0 127 0" result="hardAlpha"/>
<feOffset dx="1" dy="1"/>
<feGaussianBlur stdDeviation="0.5"/>
<feComposite in2="hardAlpha" operator="out"/>
<feColorMatrix type="matrix" values="0 0 0 0 0 0 0 0 0 0 0 0 0 0 0 0 0 0 0.25 0"/>
<feBlend mode="normal" in2="BackgroundImageFix" result="effect1_dropShadow_2418_35105"/>
<feBlend mode="normal" in="SourceGraphic" in2="effect1_dropShadow_2418_35105" result="shape"/>
</filter>
<filter id="filter3_di_2418_35105" x="114.457" y="-29.3164" width="376.664" height="330.545" filterUnits="userSpaceOnUse" color-interpolation-filters="sRGB">
<feFlood flood-opacity="0" result="BackgroundImageFix"/>
<feColorMatrix in="SourceAlpha" type="matrix" values="0 0 0 0 0 0 0 0 0 0 0 0 0 0 0 0 0 0 127 0" result="hardAlpha"/>
<feOffset dx="2" dy="2"/>
<feGaussianBlur stdDeviation="2"/>
<feComposite in2="hardAlpha" operator="out"/>
<feColorMatrix type="matrix" values="0 0 0 0 0 0 0 0 0 0 0 0 0 0 0 0 0 0 0.25 0"/>
<feBlend mode="normal" in2="BackgroundImageFix" result="effect1_dropShadow_2418_35105"/>
<feBlend mode="normal" in="SourceGraphic" in2="effect1_dropShadow_2418_35105" result="shape"/>
<feColorMatrix in="SourceAlpha" type="matrix" values="0 0 0 0 0 0 0 0 0 0 0 0 0 0 0 0 0 0 127 0" result="hardAlpha"/>
<feOffset dx="2" dy="4"/>
<feGaussianBlur stdDeviation="2"/>
<feComposite in2="hardAlpha" operator="arithmetic" k2="-1" k3="1"/>
<feColorMatrix type="matrix" values="0 0 0 0 1 0 0 0 0 1 0 0 0 0 1 0 0 0 0.3 0"/>
<feBlend mode="normal" in2="shape" result="effect2_innerShadow_2418_35105"/>
</filter>
<filter id="filter4_d_2418_35105" x="143.028" y="108.855" width="116.976" height="77.9473" filterUnits="userSpaceOnUse" color-interpolation-filters="sRGB">
<feFlood flood-opacity="0" result="BackgroundImageFix"/>
<feColorMatrix in="SourceAlpha" type="matrix" values="0 0 0 0 0 0 0 0 0 0 0 0 0 0 0 0 0 0 127 0" result="hardAlpha"/>
<feOffset dx="1" dy="1"/>
<feGaussianBlur stdDeviation="0.5"/>
<feComposite in2="hardAlpha" operator="out"/>
<feColorMatrix type="matrix" values="0 0 0 0 0 0 0 0 0 0 0 0 0 0 0 0 0 0 0.25 0"/>
<feBlend mode="normal" in2="BackgroundImageFix" result="effect1_dropShadow_2418_35105"/>
<feBlend mode="normal" in="SourceGraphic" in2="effect1_dropShadow_2418_35105" result="shape"/>
</filter>
<linearGradient id="paint0_linear_2418_35105" x1="350" y1="9.59827e-06" x2="-19.8409" y2="151.595" gradientUnits="userSpaceOnUse">
<stop stop-color="#01645C"/>
<stop offset="1" stop-color="#0A2125"/>
</linearGradient>
<radialGradient id="paint1_radial_2418_35105" cx="0" cy="0" r="1" gradientUnits="userSpaceOnUse" gradientTransform="translate(480 -0.000114441) rotate(90) scale(960 501.059)">
<stop/>
<stop offset="0.953125" stop-opacity="0"/>
</radialGradient>
<linearGradient id="paint2_linear_2418_35105" x1="111.066" y1="6.45801" x2="289.73" y2="329.003" gradientUnits="userSpaceOnUse">
<stop stop-color="#C6C1C7"/>
<stop offset="1" stop-color="#808080"/>
</linearGradient>
<linearGradient id="paint3_linear_2418_35105" x1="107.446" y1="13.6317" x2="278.111" y2="335.595" gradientUnits="userSpaceOnUse">
<stop stop-color="white"/>
<stop offset="1" stop-color="white" stop-opacity="0.3"/>
</linearGradient>
<linearGradient id="paint4_linear_2418_35105" x1="389.742" y1="294.986" x2="116.776" y2="117.363" gradientUnits="userSpaceOnUse">
<stop stop-color="#1F6A65"/>
<stop offset="1" stop-color="#43A9A1"/>
</linearGradient>
<clipPath id="clip0_2418_35105">
<rect width="350" height="200" rx="20" fill="white"/>
</clipPath>
<clipPath id="clip1_2418_35105">
<rect x="-305" y="-140" width="960" height="960" fill="white"/>
</clipPath>
<clipPath id="clip2_2418_35105">
<path d="M207.154 -19.8629C209.53 -23.9793 214.794 -25.3897 218.911 -23.0131L477.667 126.38C481.784 128.757 483.194 134.021 480.818 138.137L394.424 287.775C392.048 291.891 386.784 293.302 382.667 290.925L123.911 141.532C119.794 139.155 118.384 133.891 120.76 129.775L207.154 -19.8629Z" fill="white"/>
</clipPath>
</defs>
</svg>
