<svg width="67" height="67" viewBox="0 0 67 67" fill="none" xmlns="http://www.w3.org/2000/svg">
<rect width="67" height="67" rx="9.88525" fill="url(#paint0_linear_2017_25409)"/>
<circle cx="33.4995" cy="33.4995" r="22.3335" fill="white" fill-opacity="0.25"/>
<circle cx="33.4995" cy="33.4995" r="22.5994" stroke="white" stroke-opacity="0.4" stroke-width="0.53175"/>
<mask id="mask0_2017_25409" style="mask-type:alpha" maskUnits="userSpaceOnUse" x="21" y="22" width="25" height="24">
<rect x="21.25" y="22" width="24" height="24" fill="#D9D9D9"/>
</mask>
<g mask="url(#mask0_2017_25409)">
<path d="M36.9501 42.8498L36.0001 43.1248C35.7501 43.1915 35.5084 43.1706 35.2751 43.0623C35.0418 42.954 34.8668 42.7915 34.7501 42.5748L34.5001 42.1248C34.3668 41.8915 34.3168 41.6498 34.3501 41.3998C34.3834 41.1498 34.5001 40.9331 34.7001 40.7498L35.4001 40.0998C35.3834 39.9498 35.3751 39.7831 35.3751 39.5998C35.3751 39.4165 35.3834 39.2498 35.4001 39.0998L34.6751 38.4748C34.4918 38.2915 34.3793 38.0748 34.3376 37.8248C34.2959 37.5748 34.3418 37.3248 34.4751 37.0748L34.7251 36.6248C34.8418 36.3915 35.0168 36.229 35.2501 36.1373C35.4834 36.0456 35.7251 36.0331 35.9751 36.0998L36.9251 36.3248C37.0584 36.1915 37.2126 36.079 37.3876 35.9873C37.5626 35.8956 37.7334 35.8331 37.9001 35.7998L38.1001 34.8248C38.1501 34.5748 38.2751 34.3665 38.4751 34.1998C38.6751 34.0331 38.9084 33.9498 39.1751 33.9498H39.7001C39.9668 33.9498 40.1959 34.029 40.3876 34.1873C40.5793 34.3456 40.7001 34.5498 40.7501 34.7998L41.0001 35.7998C41.1668 35.8498 41.3418 35.9165 41.5251 35.9998C41.7084 36.0831 41.8584 36.1915 41.9751 36.3248L42.9001 36.0998C43.1501 36.0331 43.3876 36.054 43.6126 36.1623C43.8376 36.2706 44.0084 36.4331 44.1251 36.6498L44.3751 37.0748C44.5084 37.3081 44.5584 37.5581 44.5251 37.8248C44.4918 38.0915 44.3751 38.3165 44.1751 38.4998L43.5251 39.0748C43.5418 39.2248 43.5459 39.3956 43.5376 39.5873C43.5293 39.779 43.5168 39.9498 43.5001 40.0998L44.1751 40.7498C44.3584 40.9331 44.4751 41.154 44.5251 41.4123C44.5751 41.6706 44.5334 41.9165 44.4001 42.1498L44.1501 42.5998C44.0334 42.8165 43.8584 42.9748 43.6251 43.0748C43.3918 43.1748 43.1501 43.1915 42.9001 43.1248L41.9501 42.8498C41.8168 42.9665 41.6668 43.0665 41.5001 43.1498C41.3334 43.2331 41.1668 43.2998 41.0001 43.3498L40.7251 44.3748C40.6751 44.6248 40.5543 44.8248 40.3626 44.9748C40.1709 45.1248 39.9418 45.1998 39.6751 45.1998H39.1751C38.9084 45.1998 38.6709 45.1206 38.4626 44.9623C38.2543 44.804 38.1251 44.5998 38.0751 44.3498L37.9001 43.3498C37.7334 43.2998 37.5668 43.2331 37.4001 43.1498C37.2334 43.0665 37.0834 42.9665 36.9501 42.8498ZM39.4501 41.3248C39.9334 41.3248 40.3459 41.154 40.6876 40.8123C41.0293 40.4706 41.2001 40.0581 41.2001 39.5748C41.2001 39.0915 41.0293 38.679 40.6876 38.3373C40.3459 37.9956 39.9334 37.8248 39.4501 37.8248C38.9668 37.8248 38.5543 37.9956 38.2126 38.3373C37.8709 38.679 37.7001 39.0915 37.7001 39.5748C37.7001 40.0581 37.8709 40.4706 38.2126 40.8123C38.5543 41.154 38.9668 41.3248 39.4501 41.3248ZM25.3001 41.9498C24.6334 41.9498 24.0584 41.7081 23.5751 41.2248C23.0918 40.7415 22.8501 40.1665 22.8501 39.4998V28.4998C22.8501 27.8331 23.0918 27.2581 23.5751 26.7748C24.0584 26.2915 24.6334 26.0498 25.3001 26.0498H41.2001C41.8834 26.0498 42.4626 26.2915 42.9376 26.7748C43.4126 27.2581 43.6501 27.8331 43.6501 28.4998V31.4498C43.6501 31.7831 43.5293 32.0665 43.2876 32.2998C43.0459 32.5331 42.7584 32.6498 42.4251 32.6498C42.0918 32.6498 41.8043 32.529 41.5626 32.2873C41.3209 32.0456 41.2001 31.7581 41.2001 31.4248V29.8498H25.3001V34.4998H31.9501C32.3168 34.4998 32.5834 34.6665 32.7501 34.9998C32.9168 35.3331 32.9001 35.6581 32.7001 35.9748C32.4001 36.5081 32.1709 37.0748 32.0126 37.6748C31.8543 38.2748 31.7751 38.9081 31.7751 39.5748C31.7751 39.7415 31.7793 39.8998 31.7876 40.0498C31.7959 40.1998 31.8001 40.3581 31.8001 40.5248C31.8668 40.9081 31.7918 41.2415 31.5751 41.5248C31.3584 41.8081 31.0668 41.9498 30.7001 41.9498H25.3001Z" fill="white"/>
</g>
<defs>
<linearGradient id="paint0_linear_2017_25409" x1="4.14416e-07" y1="67" x2="64.1524" y2="11.3712" gradientUnits="userSpaceOnUse">
<stop stop-color="#08191D"/>
<stop offset="1" stop-color="#164347"/>
</linearGradient>
</defs>
</svg>
